<svg viewBox="0 0 512 512" xmlns="http://www.w3.org/2000/svg"><path d="m512 256c0 141.386719-114.613281 256-256 256s-256-114.613281-256-256 114.613281-256 256-256 256 114.613281 256 256zm0 0" fill="#ffe000"/><path d="m512 256c0-13.117188-.992188-26-2.894531-38.585938l-86.492188-86.492187-56.636719 89.457031-127.730468-127.730468-148.859375 259.160156 160.109375 160.109375c2.160156.054687 4.328125.082031 6.503906.082031 141.386719 0 256-114.613281 256-256zm0 0" fill="#ffc200"/><path d="m94.386719 135.921875h323.226562v210.886719h-323.226562zm0 0" fill="#fff"/><path d="m255.605469 135.921875h162.007812v210.886719h-162.007812zm0 0" fill="#dce1eb"/><path d="m412.613281 223s-41.613281-16.667969-99.613281 14c-81.445312 43.0625-171.894531 20.855469-213.613281-11.570312-1.703125-1.324219-3.359375-2.621094-5-3.910157v125.289063h323.226562v-120.78125zm0 0" fill="#9543ff"/><path d="m417.613281 226.027344-5-3.027344s-41.613281-16.667969-99.613281 14c-18.886719 9.984375-38.257812 16.457031-57.394531 20.109375v89.699219h162.007812zm0 0" fill="#7c00ff"/><path d="m296.5 346.808594h-81c-12.695312 14.773437-31.207031 23.269531-50.683594 23.269531h-12.039062v23h206.445312v-23h-12.039062c-19.476563 0-37.988282-8.496094-50.683594-23.269531zm0 0" fill="#2d2d2d"/><path d="m359.222656 370.078125h-12.039062c-19.476563 0-37.988282-8.5-50.683594-23.269531h-40.894531v46.269531h103.617187zm0 0" fill="#232222"/><path d="m422.613281 351.808594h-333.226562v-220.886719h333.226562zm-323.226562-10h313.226562v-200.886719h-313.226562zm0 0" fill="#2d2d2d"/><path d="m422.613281 130.921875h-167.007812v10h157.007812v200.886719h-157.007812v10h167.007812zm0 0" fill="#232222"/><path d="m226.5625 302.667969h-93.199219c-7.714843 0-13.96875-6.253907-13.96875-13.96875v-188.398438c0-7.714843 6.253907-13.96875 13.96875-13.96875h93.199219c7.714844 0 13.96875 6.253907 13.96875 13.96875v188.398438c0 7.714843-6.253906 13.96875-13.96875 13.96875zm0 0" fill="#333940"/><path d="m226.5625 86.332031h-46.714844v216.335938h46.714844c7.714844 0 13.96875-6.253907 13.96875-13.96875v-188.398438c0-7.714843-6.253906-13.96875-13.96875-13.96875zm0 0" fill="#23272b"/><path d="m132.046875 106.332031h95.832031v169.667969h-95.832031zm0 0" fill="#fff"/><path d="m179.847656 106.332031h48.03125v169.667969h-48.03125zm0 0" fill="#dce1eb"/><path d="m227.878906 154.941406c-15.789062 1.578125-35.1875 6.425782-56.878906 17.894532-12.835938 6.785156-25.894531 11.949218-38.953125 15.710937v87.453125h95.832031zm0 0" fill="#9543ff"/><path d="m227.878906 154.941406c-13.609375 1.359375-29.902344 5.160156-48.03125 13.523438v107.53125h48.03125zm0 0" fill="#7c00ff"/></svg>